<svg version="1.1" xmlns="http://www.w3.org/2000/svg" xmlns:xlink="http://www.w3.org/1999/xlink" stroke-linecap="round" stroke-linejoin="round" stroke-width="0" fill-rule="evenodd" width="1.53in" height="1.935in" viewBox="1215 2650 1530 1935" id="uTfZVSip8aTX8UfCziUI"><defs><mask id="uTfZVSip8aTX8UfCziUI_clear-1" fill="#000" stroke="#000"><g><rect x="1215" y="2650" width="1530" height="1935" fill="#fff"/><path d="M 2014.27 2910.83 1987.87 2910.83 1987.87 2884.43 1989.14 2884.6 1997.65 2888.13 2004.96 2893.74 2010.57 2901.05 2014.1 2909.56 2014.27 2910.83"/><path d="M 2026.77 3077.13 1933.23 3077.13 1933.82 3072.63 1938.6 3061.09 1946.19 3051.19 1955.91 3043.73 1955.91 2944.34 1955.04 2943.66 1949.43 2936.35 1945.9 2927.84 1945.73 2926.57 2014.27 2926.57 2014.1 2927.84 2010.57 2936.35 2004.96 2943.66 2004.09 2944.34 2004.09 3043.73 2013.81 3051.19 2021.4 3061.09 2026.18 3072.63 2026.77 3077.13"/><path d="M 1972.13 3131.77 1967.63 3131.18 1956.09 3126.41 1946.19 3118.81 1938.6 3108.91 1933.82 3097.37 1933.23 3092.87 1972.13 3092.87 1972.13 3131.77"/><path d="M 1330 2869.95 1311.48 2868.12 1293.67 2862.72 1277.25 2853.94 1262.86 2842.14 1251.06 2827.75 1242.28 2811.33 1236.88 2793.52 1235.05 2775 1236.88 2756.48 1242.28 2738.67 1251.06 2722.25 1262.86 2707.86 1277.25 2696.06 1293.67 2687.28 1311.48 2681.88 1330 2680.05 1348.52 2681.88 1366.33 2687.28 1382.75 2696.06 1397.14 2707.86 1408.94 2722.25 1417.72 2738.67 1423.12 2756.48 1424.94 2775 1423.12 2793.52 1417.72 2811.33 1408.94 2827.75 1397.14 2842.14 1382.75 2853.94 1366.33 2862.72 1348.52 2868.12 1330 2869.95"/><path d="M 2630 2869.95 2611.48 2868.12 2593.67 2862.72 2577.25 2853.94 2562.86 2842.14 2551.06 2827.75 2542.28 2811.33 2536.88 2793.52 2535.05 2775 2536.88 2756.48 2542.28 2738.67 2551.06 2722.25 2562.86 2707.86 2577.25 2696.06 2593.67 2687.28 2611.48 2681.88 2630 2680.05 2648.52 2681.88 2666.33 2687.28 2682.75 2696.06 2697.14 2707.86 2708.94 2722.25 2717.72 2738.67 2723.12 2756.48 2724.95 2775 2723.12 2793.52 2717.72 2811.33 2708.94 2827.75 2697.14 2842.14 2682.75 2853.94 2666.33 2862.72 2648.52 2868.12 2630 2869.95"/><path d="M 1972.13 2910.83 1945.73 2910.83 1945.9 2909.56 1949.43 2901.05 1955.04 2893.74 1962.35 2888.13 1970.86 2884.6 1972.13 2884.43 1972.13 2910.83"/><path d="M 1987.87 3131.77 1987.87 3092.87 2026.77 3092.87 2026.18 3097.37 2021.4 3108.91 2013.81 3118.81 2003.91 3126.41 1992.37 3131.18 1987.87 3131.77"/><path d="M 2630 4579.95 2611.48 4578.12 2593.67 4572.72 2577.25 4563.94 2562.86 4552.14 2551.06 4537.75 2542.28 4521.33 2536.88 4503.52 2535.05 4485 2536.88 4466.48 2542.28 4448.67 2551.06 4432.25 2562.86 4417.86 2577.25 4406.06 2593.67 4397.28 2611.48 4391.88 2630 4390.06 2648.52 4391.88 2666.33 4397.28 2682.75 4406.06 2697.14 4417.86 2708.94 4432.25 2717.72 4448.67 2723.12 4466.48 2724.95 4485 2723.12 4503.52 2717.72 4521.33 2708.94 4537.75 2697.14 4552.14 2682.75 4563.94 2666.33 4572.72 2648.52 4578.12 2630 4579.95"/><path d="M 1925 4451.62 1911.64 4449.86 1899.19 4444.71 1888.5 4436.5 1880.29 4425.81 1877.71 4419.57 1872.29 4419.57 1869.71 4425.81 1861.5 4436.5 1850.81 4444.71 1838.36 4449.86 1825 4451.62 1811.64 4449.86 1799.19 4444.71 1788.5 4436.5 1780.29 4425.81 1777.71 4419.57 1772.29 4419.57 1769.71 4425.81 1761.5 4436.5 1750.81 4444.71 1738.36 4449.86 1725 4451.62 1711.64 4449.86 1699.19 4444.71 1688.5 4436.5 1680.29 4425.81 1677.71 4419.57 1672.29 4419.57 1669.71 4425.81 1661.5 4436.5 1650.81 4444.71 1638.36 4449.86 1625 4451.62 1611.64 4449.86 1599.19 4444.71 1588.5 4436.5 1580.29 4425.81 1575.14 4413.36 1573.38 4400 1575.14 4386.64 1580.29 4374.19 1588.5 4363.5 1599.19 4355.29 1611.64 4350.14 1625 4348.38 1638.36 4350.14 1650.81 4355.29 1661.5 4363.5 1669.71 4374.19 1672.29 4380.43 1677.71 4380.43 1680.29 4374.19 1688.5 4363.5 1699.19 4355.29 1711.64 4350.14 1725 4348.38 1738.36 4350.14 1750.81 4355.29 1761.5 4363.5 1769.71 4374.19 1772.29 4380.43 1777.71 4380.43 1780.29 4374.19 1788.5 4363.5 1799.19 4355.29 1811.64 4350.14 1825 4348.38 1838.36 4350.14 1850.81 4355.29 1861.5 4363.5 1869.71 4374.19 1872.29 4380.43 1877.71 4380.43 1880.29 4374.19 1888.5 4363.5 1899.19 4355.29 1900.92 4354.58 1900.92 4324.98 1860.02 4284.08 1760 4284.08 1750.78 4282.25 1742.97 4277.03 1707.18 4241.24 1701.96 4233.43 1700.13 4224.21 1700.13 4195.42 1698.4 4194.71 1687.71 4186.5 1679.51 4175.81 1676.92 4169.57 1671.51 4169.57 1668.92 4175.81 1660.71 4186.5 1650.02 4194.71 1637.57 4199.86 1624.21 4201.62 1610.85 4199.86 1598.4 4194.71 1587.71 4186.5 1579.51 4175.81 1574.35 4163.36 1573.84 4159.46 1568.79 4159.46 1568.48 4161.86 1563.9 4172.91 1556.62 4182.4 1547.12 4189.69 1536.07 4194.26 1532.09 4194.79 1532.09 4150 1516.34 4150 1516.34 4194.79 1512.35 4194.26 1501.3 4189.69 1491.81 4182.4 1484.53 4172.91 1479.95 4161.86 1479.63 4159.46 1474.59 4159.46 1474.08 4163.36 1468.92 4175.81 1460.72 4186.5 1450.02 4194.71 1437.57 4199.86 1424.21 4201.62 1410.85 4199.86 1398.4 4194.71 1387.71 4186.5 1379.51 4175.81 1374.35 4163.36 1372.59 4150 1374.35 4136.64 1379.51 4124.19 1387.71 4113.5 1398.4 4105.29 1410.85 4100.14 1424.21 4098.38 1437.57 4100.14 1450.02 4105.29 1460.72 4113.5 1468.92 4124.19 1474.08 4136.64 1474.59 4140.54 1479.63 4140.54 1479.95 4138.14 1484.53 4127.09 1491.81 4117.6 1501.3 4110.31 1507.59 4107.71 1507.08 4102.51 1505.78 4102.25 1497.97 4097.03 1292.97 3892.03 1287.75 3884.22 1285.92 3875 1285.92 3460 1287.75 3450.78 1292.97 3442.97 1625.92 3110.02 1625.92 3030.42 1624.19 3029.71 1613.5 3021.5 1605.29 3010.81 1602.71 3004.56 1597.29 3004.56 1594.71 3010.81 1586.5 3021.5 1575.81 3029.71 1563.36 3034.86 1550 3036.62 1536.64 3034.86 1524.19 3029.71 1513.5 3021.5 1505.29 3010.81 1500.14 2998.36 1498.38 2985 1500.14 2971.64 1505.29 2959.19 1513.5 2948.5 1524.19 2940.29 1536.64 2935.14 1550 2933.38 1563.36 2935.14 1575.81 2940.29 1586.5 2948.5 1594.71 2959.19 1597.29 2965.44 1602.71 2965.44 1605.29 2959.19 1613.5 2948.5 1624.19 2940.29 1636.64 2935.14 1650 2933.38 1663.36 2935.14 1675.81 2940.29 1686.5 2948.5 1694.71 2959.19 1699.86 2971.64 1701.62 2985 1699.86 2998.36 1694.71 3010.81 1686.5 3021.5 1675.81 3029.71 1674.09 3030.42 1674.09 3105.32 1678.7 3107.23 1715.28 3070.65 1715.28 2947.25 1710.31 2943.43 1703.78 2934.92 1699.67 2925.01 1698.27 2914.37 1699.67 2903.73 1703.78 2893.82 1710.31 2885.31 1718.82 2878.78 1728.73 2874.67 1739.37 2873.27 1750.01 2874.67 1759.92 2878.78 1768.43 2885.31 1774.96 2893.82 1779.07 2903.73 1780.47 2914.37 1779.07 2925.01 1774.96 2934.92 1768.43 2943.43 1763.46 2947.25 1763.46 3080.63 1761.62 3089.85 1756.4 3097.66 1369.08 3484.98 1369.08 3538.32 1374.08 3538.65 1374.35 3536.64 1379.51 3524.19 1387.71 3513.5 1398.4 3505.29 1410.85 3500.14 1424.21 3498.38 1437.57 3500.14 1450.02 3505.29 1460.72 3513.5 1468.92 3524.19 1471.51 3530.44 1476.92 3530.44 1479.51 3524.19 1487.71 3513.5 1498.4 3505.29 1510.85 3500.14 1524.21 3498.38 1537.57 3500.14 1550.02 3505.29 1560.71 3513.5 1568.92 3524.19 1571.51 3530.44 1576.92 3530.44 1579.51 3524.19 1587.71 3513.5 1598.4 3505.29 1610.85 3500.14 1624.21 3498.38 1637.57 3500.14 1650.02 3505.29 1660.71 3513.5 1668.92 3524.19 1674.08 3536.64 1674.59 3540.54 1679.63 3540.54 1679.95 3538.14 1684.53 3527.09 1691.81 3517.6 1701.3 3510.31 1712.35 3505.74 1716.34 3505.21 1716.34 3550 1716.34 3594.79 1712.35 3594.26 1701.3 3589.69 1691.81 3582.4 1684.53 3572.91 1679.95 3561.86 1679.63 3559.46 1674.59 3559.46 1674.08 3563.36 1668.92 3575.81 1660.71 3586.5 1650.02 3594.71 1637.57 3599.86 1624.21 3601.62 1610.85 3599.86 1598.4 3594.71 1587.71 3586.5 1579.51 3575.81 1576.92 3569.56 1571.51 3569.56 1568.92 3575.81 1560.71 3586.5 1550.02 3594.71 1537.57 3599.86 1524.21 3601.62 1510.85 3599.86 1498.4 3594.71 1487.71 3586.5 1479.51 3575.81 1476.92 3569.56 1471.51 3569.56 1468.92 3575.81 1460.72 3586.5 1450.02 3594.71 1437.57 3599.86 1424.21 3601.62 1410.85 3599.86 1398.4 3594.71 1387.71 3586.5 1379.51 3575.81 1374.35 3563.36 1374.08 3561.35 1369.08 3561.68 1369.08 3835.02 1554.98 4020.92 2019.21 4020.92 2028.43 4022.75 2036.24 4027.97 2109.12 4100.85 2110.85 4100.14 2124.21 4098.38 2137.57 4100.14 2150.02 4105.29 2160.72 4113.5 2168.92 4124.19 2171.51 4130.43 2176.92 4130.43 2179.51 4124.19 2187.71 4113.5 2198.4 4105.29 2210.85 4100.14 2224.21 4098.38 2237.57 4100.14 2250.02 4105.29 2260.72 4113.5 2268.92 4124.19 2271.9 4131.39 2277.31 4131.39 2280.29 4124.19 2288.5 4113.5 2299.19 4105.29 2311.64 4100.14 2325 4098.38 2338.36 4100.14 2350.81 4105.29 2361.5 4113.5 2369.71 4124.19 2372.29 4130.43 2377.71 4130.43 2380.29 4124.19 2388.5 4113.5 2399.19 4105.29 2411.64 4100.14 2425 4098.38 2438.36 4100.14 2450.81 4105.29 2461.5 4113.5 2469.71 4124.19 2472.29 4130.43 2477.71 4130.43 2480.29 4124.19 2488.5 4113.5 2499.19 4105.29 2511.64 4100.14 2525 4098.38 2538.36 4100.14 2550.81 4105.29 2561.5 4113.5 2569.71 4124.19 2574.86 4136.64 2576.62 4150 2574.86 4163.36 2569.71 4175.81 2561.5 4186.5 2550.81 4194.71 2538.36 4199.86 2525 4201.62 2511.64 4199.86 2499.19 4194.71 2488.5 4186.5 2480.29 4175.81 2477.71 4169.57 2472.29 4169.57 2469.71 4175.81 2461.5 4186.5 2450.81 4194.71 2438.36 4199.86 2425 4201.62 2411.64 4199.86 2399.19 4194.71 2388.5 4186.5 2380.29 4175.81 2377.71 4169.57 2372.29 4169.57 2369.71 4175.81 2361.5 4186.5 2350.81 4194.71 2338.36 4199.86 2325 4201.62 2311.64 4199.86 2299.19 4194.71 2288.5 4186.5 2280.29 4175.81 2277.31 4168.61 2271.9 4168.61 2268.92 4175.81 2260.72 4186.5 2250.02 4194.71 2237.57 4199.86 2224.21 4201.62 2210.85 4199.86 2198.4 4194.71 2187.71 4186.5 2179.51 4175.81 2176.92 4169.57 2171.51 4169.57 2168.92 4175.81 2160.72 4186.5 2150.02 4194.71 2137.57 4199.86 2124.21 4201.62 2110.85 4199.86 2098.4 4194.71 2087.71 4186.5 2079.51 4175.81 2076.92 4169.57 2071.51 4169.57 2068.92 4175.81 2060.71 4186.5 2050.02 4194.71 2037.57 4199.86 2024.21 4201.62 2010.85 4199.86 1998.4 4194.71 1987.71 4186.5 1979.51 4175.81 1976.92 4169.57 1971.51 4169.57 1968.92 4175.81 1960.72 4186.5 1950.02 4194.71 1937.57 4199.86 1924.21 4201.62 1910.85 4199.86 1898.4 4194.71 1887.71 4186.5 1879.51 4175.81 1876.92 4169.57 1871.51 4169.57 1868.92 4175.81 1860.72 4186.5 1850.02 4194.71 1837.57 4199.86 1824.21 4201.62 1810.85 4199.86 1798.4 4194.71 1787.71 4186.5 1779.51 4175.81 1776.92 4169.57 1771.51 4169.57 1768.92 4175.81 1760.72 4186.5 1750.02 4194.71 1748.3 4195.42 1748.3 4214.24 1769.98 4235.92 1870 4235.92 1879.22 4237.75 1887.03 4242.97 1942.03 4297.97 1947.25 4305.78 1949.08 4315 1949.08 4354.58 1950.81 4355.29 1961.5 4363.5 1969.71 4374.19 1974.86 4386.64 1975.38 4390.54 1980.42 4390.54 1980.74 4388.14 1985.31 4377.09 1992.6 4367.6 2002.09 4360.31 2013.14 4355.74 2017.13 4355.21 2017.13 4400 2017.13 4444.79 2013.14 4444.26 2002.09 4439.69 1992.6 4432.4 1985.31 4422.91 1980.74 4411.86 1980.42 4409.46 1975.38 4409.46 1974.86 4413.36 1969.71 4425.81 1961.5 4436.5 1950.81 4444.71 1938.36 4449.86 1925 4451.62"/><path d="M 2325 4451.62 2311.64 4449.86 2299.19 4444.71 2288.5 4436.5 2280.29 4425.81 2277.71 4419.57 2272.29 4419.57 2269.71 4425.81 2261.5 4436.5 2250.81 4444.71 2238.36 4449.86 2225 4451.62 2211.64 4449.86 2199.19 4444.71 2188.5 4436.5 2180.29 4425.81 2177.71 4419.57 2172.29 4419.57 2169.71 4425.81 2161.5 4436.5 2150.81 4444.71 2138.36 4449.86 2125 4451.62 2111.64 4449.86 2099.19 4444.71 2088.5 4436.5 2080.29 4425.81 2075.14 4413.36 2074.62 4409.46 2069.58 4409.46 2069.26 4411.86 2064.69 4422.91 2057.4 4432.4 2047.91 4439.69 2036.86 4444.26 2032.87 4444.79 2032.87 4400 2032.87 4355.21 2036.86 4355.74 2047.91 4360.31 2057.4 4367.6 2064.69 4377.09 2069.26 4388.14 2069.58 4390.54 2074.62 4390.54 2075.14 4386.64 2080.29 4374.19 2088.5 4363.5 2099.19 4355.29 2111.64 4350.14 2125 4348.38 2138.36 4350.14 2150.81 4355.29 2161.5 4363.5 2169.71 4374.19 2172.29 4380.43 2177.71 4380.43 2180.29 4374.19 2188.5 4363.5 2199.19 4355.29 2211.64 4350.14 2225 4348.38 2238.36 4350.14 2250.81 4355.29 2261.5 4363.5 2269.71 4374.19 2272.29 4380.43 2277.71 4380.43 2280.29 4374.19 2288.5 4363.5 2299.19 4355.29 2311.64 4350.14 2325 4348.38 2338.36 4350.14 2350.81 4355.29 2361.5 4363.5 2369.71 4374.19 2374.86 4386.64 2376.62 4400 2374.86 4413.36 2369.71 4425.81 2361.5 4436.5 2350.81 4444.71 2338.36 4449.86 2325 4451.62"/><path d="M 1330 4579.95 1311.48 4578.12 1293.67 4572.72 1277.25 4563.94 1262.86 4552.14 1251.06 4537.75 1242.28 4521.33 1236.88 4503.52 1235.05 4485 1236.88 4466.48 1242.28 4448.67 1251.06 4432.25 1262.86 4417.86 1277.25 4406.06 1293.67 4397.28 1311.48 4391.88 1330 4390.06 1348.52 4391.88 1366.33 4397.28 1382.75 4406.06 1397.14 4417.86 1408.94 4432.25 1417.72 4448.67 1423.12 4466.48 1424.94 4485 1423.12 4503.52 1417.72 4521.33 1408.94 4537.75 1397.14 4552.14 1382.75 4563.94 1366.33 4572.72 1348.52 4578.12 1330 4579.95"/><path d="M 1980 3392.53 1966.64 3390.77 1954.19 3385.61 1943.5 3377.41 1935.29 3366.72 1930.14 3354.27 1928.38 3340.9 1930.14 3327.54 1935.29 3315.09 1943.5 3304.4 1954.19 3296.2 1966.64 3291.04 1980 3289.28 1993.36 3291.04 2005.81 3296.2 2016.5 3304.4 2024.71 3315.09 2029.86 3327.54 2031.62 3340.9 2029.86 3354.27 2024.71 3366.72 2016.5 3377.41 2005.81 3385.61 1993.36 3390.77 1980 3392.53"/><path d="M 2525 3601.62 2511.64 3599.86 2499.19 3594.71 2488.5 3586.5 2480.29 3575.81 2477.71 3569.56 2472.29 3569.56 2469.71 3575.81 2461.5 3586.5 2450.81 3594.71 2438.36 3599.86 2425 3601.62 2411.64 3599.86 2399.19 3594.71 2388.5 3586.5 2380.29 3575.81 2377.71 3569.56 2372.29 3569.56 2369.71 3575.81 2361.5 3586.5 2350.81 3594.71 2338.36 3599.86 2325 3601.62 2311.64 3599.86 2299.19 3594.71 2288.5 3586.5 2280.29 3575.81 2277.31 3568.61 2271.9 3568.61 2268.92 3575.81 2260.72 3586.5 2250.02 3594.71 2237.57 3599.86 2224.21 3601.62 2210.85 3599.86 2198.4 3594.71 2187.71 3586.5 2179.51 3575.81 2176.92 3569.56 2171.51 3569.56 2168.92 3575.81 2160.72 3586.5 2150.02 3594.71 2137.57 3599.86 2124.21 3601.62 2110.85 3599.86 2098.4 3594.71 2087.71 3586.5 2079.51 3575.81 2076.92 3569.56 2071.51 3569.56 2068.92 3575.81 2060.71 3586.5 2050.02 3594.71 2037.57 3599.86 2024.21 3601.62 2010.85 3599.86 1998.4 3594.71 1987.71 3586.5 1979.51 3575.81 1976.92 3569.56 1971.51 3569.56 1968.92 3575.81 1960.72 3586.5 1950.02 3594.71 1937.57 3599.86 1924.21 3601.62 1910.85 3599.86 1898.4 3594.71 1887.71 3586.5 1879.51 3575.81 1876.92 3569.56 1871.51 3569.56 1868.92 3575.81 1860.72 3586.5 1850.02 3594.71 1837.57 3599.86 1824.21 3601.62 1810.85 3599.86 1798.4 3594.71 1787.71 3586.5 1779.51 3575.81 1774.35 3563.36 1773.83 3559.46 1768.79 3559.46 1768.48 3561.86 1763.9 3572.91 1756.62 3582.4 1747.13 3589.69 1736.07 3594.26 1732.09 3594.79 1732.09 3550 1732.09 3505.21 1736.07 3505.74 1747.13 3510.31 1756.62 3517.6 1763.9 3527.09 1768.48 3538.14 1768.79 3540.54 1773.83 3540.54 1774.35 3536.64 1779.51 3524.19 1787.71 3513.5 1798.4 3505.29 1810.85 3500.14 1824.21 3498.38 1837.57 3500.14 1850.02 3505.29 1860.72 3513.5 1868.92 3524.19 1871.51 3530.44 1876.92 3530.44 1879.51 3524.19 1887.71 3513.5 1898.4 3505.29 1910.85 3500.14 1924.21 3498.38 1937.57 3500.14 1950.02 3505.29 1960.72 3513.5 1968.92 3524.19 1971.51 3530.44 1976.92 3530.44 1979.51 3524.19 1987.71 3513.5 1998.4 3505.29 2010.85 3500.14 2024.21 3498.38 2037.57 3500.14 2050.02 3505.29 2060.71 3513.5 2068.92 3524.19 2071.51 3530.44 2076.92 3530.44 2079.51 3524.19 2087.71 3513.5 2098.4 3505.29 2110.85 3500.14 2124.21 3498.38 2137.57 3500.14 2150.02 3505.29 2160.72 3513.5 2168.92 3524.19 2171.51 3530.44 2176.92 3530.44 2179.51 3524.19 2187.71 3513.5 2198.4 3505.29 2210.85 3500.14 2224.21 3498.38 2237.57 3500.14 2250.02 3505.29 2260.72 3513.5 2268.92 3524.19 2271.9 3531.39 2277.31 3531.39 2280.29 3524.19 2288.5 3513.5 2299.19 3505.29 2311.64 3500.14 2325 3498.38 2338.36 3500.14 2350.81 3505.29 2361.5 3513.5 2369.71 3524.19 2372.29 3530.44 2377.71 3530.44 2380.29 3524.19 2388.5 3513.5 2399.19 3505.29 2411.64 3500.14 2425 3498.38 2438.36 3500.14 2450.81 3505.29 2461.5 3513.5 2469.71 3524.19 2472.29 3530.44 2477.71 3530.44 2480.29 3524.19 2488.5 3513.5 2499.19 3505.29 2511.64 3500.14 2525 3498.38 2538.36 3500.14 2550.81 3505.29 2561.5 3513.5 2569.71 3524.19 2574.86 3536.64 2576.62 3550 2574.86 3563.36 2569.71 3575.81 2561.5 3586.5 2550.81 3594.71 2538.36 3599.86 2525 3601.62"/></g></mask><circle cx="0" cy="0" r="35.435" id="uTfZVSip8aTX8UfCziUI_pad-16"/><circle cx="0" cy="0" r="37.4" id="uTfZVSip8aTX8UfCziUI_pad-17"/><circle cx="0" cy="0" r="78.74" id="uTfZVSip8aTX8UfCziUI_pad-18"/><circle cx="0" cy="0" r="25" id="uTfZVSip8aTX8UfCziUI_pad-19"/></defs><g transform="translate(0,7235) scale(1,-1)" fill="currentColor" stroke="currentColor"><g mask="url(#uTfZVSip8aTX8UfCziUI_clear-1)"><path d="M 2745 2650 1215 2650 1215 4585 2745 4585 2745 2650"/></g><path d="M 1879.51 4124.19 1887.71 4113.5 1898.4 4105.29 1910.85 4100.14 1924.21 4098.38 1937.57 4100.14 1950.02 4105.29 1960.72 4113.5 1968.92 4124.19 1971.51 4130.43 1976.92 4130.43 1979.51 4124.19 1987.71 4113.5 1998.4 4105.29 2010.85 4100.14 2024.21 4098.38 2032.56 4099.48 2034.89 4094.74 2009.24 4069.09 1739.68 4069.09 1737.76 4073.7 1741.24 4077.18 1746.46 4085 1748.3 4094.21 1748.3 4104.58 1750.02 4105.29 1760.72 4113.5 1768.92 4124.19 1771.51 4130.43 1776.92 4130.43 1779.51 4124.19 1787.71 4113.5 1798.4 4105.29 1810.85 4100.14 1824.21 4098.38 1837.57 4100.14 1850.02 4105.29 1860.72 4113.5 1868.92 4124.19 1871.51 4130.43 1876.92 4130.43 1879.51 4124.19"/><path d="M 1310 3460 1650 3120 M 1650 3015 1650 3120 M 1980 2918.7 1980 3085 M 1310 3460 1310 3875 1515 4080 M 1724.21 4094.21 1724.21 4150 M 1710 4080 1724.21 4094.21 M 1515 4080 1710 4080 M 1724.21 4150 1724.21 4224.21 1760 4260 1870 4260 1925 4315 1925 4385 M 1739.37 2914.37 1739.37 3080.63 M 1345 3475 1739.37 3080.63 M 2019.21 4045 2124.21 4150 M 1545 4045 2019.21 4045 M 1345 3845 1545 4045 M 1345 3475 1345 3845" fill="none" stroke-width="15.75"/><use xlink:href="#uTfZVSip8aTX8UfCziUI_pad-16" x="1650" y="2985"/><use xlink:href="#uTfZVSip8aTX8UfCziUI_pad-16" x="1550" y="2985"/><use xlink:href="#uTfZVSip8aTX8UfCziUI_pad-16" x="1980" y="3340.9"/><use xlink:href="#uTfZVSip8aTX8UfCziUI_pad-16" x="2525" y="4150"/><use xlink:href="#uTfZVSip8aTX8UfCziUI_pad-16" x="2425" y="4150"/><use xlink:href="#uTfZVSip8aTX8UfCziUI_pad-16" x="2325" y="4150"/><use xlink:href="#uTfZVSip8aTX8UfCziUI_pad-16" x="2224.21" y="4150"/><use xlink:href="#uTfZVSip8aTX8UfCziUI_pad-16" x="2124.21" y="4150"/><use xlink:href="#uTfZVSip8aTX8UfCziUI_pad-16" x="2024.21" y="4150"/><use xlink:href="#uTfZVSip8aTX8UfCziUI_pad-16" x="1924.21" y="4150"/><use xlink:href="#uTfZVSip8aTX8UfCziUI_pad-16" x="1824.21" y="4150"/><use xlink:href="#uTfZVSip8aTX8UfCziUI_pad-16" x="1724.21" y="4150"/><use xlink:href="#uTfZVSip8aTX8UfCziUI_pad-16" x="1624.21" y="4150"/><use xlink:href="#uTfZVSip8aTX8UfCziUI_pad-16" x="1524.21" y="4150"/><use xlink:href="#uTfZVSip8aTX8UfCziUI_pad-16" x="1424.21" y="4150"/><use xlink:href="#uTfZVSip8aTX8UfCziUI_pad-16" x="2525" y="3550"/><use xlink:href="#uTfZVSip8aTX8UfCziUI_pad-16" x="1424.21" y="3550"/><use xlink:href="#uTfZVSip8aTX8UfCziUI_pad-16" x="1524.21" y="3550"/><use xlink:href="#uTfZVSip8aTX8UfCziUI_pad-16" x="1624.21" y="3550"/><use xlink:href="#uTfZVSip8aTX8UfCziUI_pad-16" x="1724.21" y="3550"/><use xlink:href="#uTfZVSip8aTX8UfCziUI_pad-16" x="1824.21" y="3550"/><use xlink:href="#uTfZVSip8aTX8UfCziUI_pad-16" x="1924.21" y="3550"/><use xlink:href="#uTfZVSip8aTX8UfCziUI_pad-16" x="2024.21" y="3550"/><use xlink:href="#uTfZVSip8aTX8UfCziUI_pad-16" x="2124.21" y="3550"/><use xlink:href="#uTfZVSip8aTX8UfCziUI_pad-16" x="2224.21" y="3550"/><use xlink:href="#uTfZVSip8aTX8UfCziUI_pad-16" x="2325" y="3550"/><use xlink:href="#uTfZVSip8aTX8UfCziUI_pad-16" x="2425" y="3550"/><use xlink:href="#uTfZVSip8aTX8UfCziUI_pad-16" x="1625" y="4400"/><use xlink:href="#uTfZVSip8aTX8UfCziUI_pad-16" x="1725" y="4400"/><use xlink:href="#uTfZVSip8aTX8UfCziUI_pad-16" x="1825" y="4400"/><use xlink:href="#uTfZVSip8aTX8UfCziUI_pad-16" x="1925" y="4400"/><use xlink:href="#uTfZVSip8aTX8UfCziUI_pad-16" x="2025" y="4400"/><use xlink:href="#uTfZVSip8aTX8UfCziUI_pad-16" x="2125" y="4400"/><use xlink:href="#uTfZVSip8aTX8UfCziUI_pad-16" x="2225" y="4400"/><use xlink:href="#uTfZVSip8aTX8UfCziUI_pad-16" x="2325" y="4400"/><use xlink:href="#uTfZVSip8aTX8UfCziUI_pad-17" x="1980" y="3085"/><use xlink:href="#uTfZVSip8aTX8UfCziUI_pad-18" x="1330" y="2775"/><use xlink:href="#uTfZVSip8aTX8UfCziUI_pad-18" x="2630" y="2775"/><use xlink:href="#uTfZVSip8aTX8UfCziUI_pad-18" x="2630" y="4485"/><use xlink:href="#uTfZVSip8aTX8UfCziUI_pad-18" x="1330" y="4485"/><use xlink:href="#uTfZVSip8aTX8UfCziUI_pad-19" x="1980" y="2918.7"/><use xlink:href="#uTfZVSip8aTX8UfCziUI_pad-19" x="1739.37" y="2914.37"/></g></svg>